<mxfile host="65bd71144e">
    <diagram id="mTx6PJ1XlBeTCLGS-Tsy" name="map">
        <mxGraphModel dx="988" dy="532" grid="0" gridSize="10" guides="1" tooltips="1" connect="1" arrows="1" fold="1" page="1" pageScale="1" pageWidth="850" pageHeight="1100" math="0" shadow="0">
            <root>
                <mxCell id="0"/>
                <mxCell id="1" parent="0"/>
                <mxCell id="37" value="" style="rounded=1;whiteSpace=wrap;html=1;fillColor=#f5f5f5;fontColor=#333333;strokeColor=#666666;opacity=30;fontStyle=1" vertex="1" parent="1">
                    <mxGeometry x="480" y="380" width="90" height="140" as="geometry"/>
                </mxCell>
                <mxCell id="35" value="" style="rounded=1;whiteSpace=wrap;html=1;fillColor=#f5f5f5;fontColor=#333333;strokeColor=#666666;opacity=30;fontStyle=1" vertex="1" parent="1">
                    <mxGeometry x="480" y="280" width="90" height="90" as="geometry"/>
                </mxCell>
                <mxCell id="34" value="" style="rounded=1;whiteSpace=wrap;html=1;fillColor=#f5f5f5;fontColor=#333333;strokeColor=#666666;opacity=30;" vertex="1" parent="1">
                    <mxGeometry x="480" y="30" width="90" height="240" as="geometry"/>
                </mxCell>
                <mxCell id="2" value="" style="endArrow=classic;html=1;" parent="1" edge="1">
                    <mxGeometry width="50" height="50" relative="1" as="geometry">
                        <mxPoint x="280" y="40" as="sourcePoint"/>
                        <mxPoint x="280" y="520" as="targetPoint"/>
                    </mxGeometry>
                </mxCell>
                <mxCell id="5" value="Book" style="ellipse;whiteSpace=wrap;html=1;fillColor=#d5e8d4;strokeColor=#82b366;shadow=1;" parent="1" vertex="1">
                    <mxGeometry x="190" y="100" width="70" height="50" as="geometry"/>
                </mxCell>
                <mxCell id="6" value="Book" style="ellipse;whiteSpace=wrap;html=1;fillColor=#d5e8d4;strokeColor=#82b366;shadow=1;" parent="1" vertex="1">
                    <mxGeometry x="300" y="100" width="70" height="50" as="geometry"/>
                </mxCell>
                <mxCell id="7" value="Book" style="ellipse;whiteSpace=wrap;html=1;fillColor=#d5e8d4;strokeColor=#82b366;shadow=1;" parent="1" vertex="1">
                    <mxGeometry x="245" y="100" width="70" height="50" as="geometry"/>
                </mxCell>
                <mxCell id="4" value="Author" style="rounded=1;whiteSpace=wrap;html=1;fillColor=#ffe6cc;strokeColor=#d79b00;shadow=1;" parent="1" vertex="1">
                    <mxGeometry x="230" y="60" width="100" height="50" as="geometry"/>
                </mxCell>
                <mxCell id="10" value="Book" style="ellipse;whiteSpace=wrap;html=1;fillColor=#d5e8d4;strokeColor=#82b366;shadow=1;" parent="1" vertex="1">
                    <mxGeometry x="245" y="240" width="70" height="50" as="geometry"/>
                </mxCell>
                <mxCell id="11" value="Author" style="rounded=1;whiteSpace=wrap;html=1;fillColor=#ffe6cc;strokeColor=#d79b00;shadow=1;" parent="1" vertex="1">
                    <mxGeometry x="230" y="200" width="100" height="50" as="geometry"/>
                </mxCell>
                <mxCell id="12" value="Book" style="ellipse;whiteSpace=wrap;html=1;fillColor=#d5e8d4;strokeColor=#82b366;shadow=1;" parent="1" vertex="1">
                    <mxGeometry x="220" y="380" width="70" height="50" as="geometry"/>
                </mxCell>
                <mxCell id="13" value="Book" style="ellipse;whiteSpace=wrap;html=1;fillColor=#d5e8d4;strokeColor=#82b366;shadow=1;" parent="1" vertex="1">
                    <mxGeometry x="270" y="380" width="70" height="50" as="geometry"/>
                </mxCell>
                <mxCell id="15" value="Author" style="rounded=1;whiteSpace=wrap;html=1;fillColor=#ffe6cc;strokeColor=#d79b00;shadow=1;" parent="1" vertex="1">
                    <mxGeometry x="230" y="340" width="100" height="50" as="geometry"/>
                </mxCell>
                <mxCell id="16" value="" style="endArrow=classic;html=1;" parent="1" edge="1">
                    <mxGeometry width="50" height="50" relative="1" as="geometry">
                        <mxPoint x="500" y="40" as="sourcePoint"/>
                        <mxPoint x="500" y="520" as="targetPoint"/>
                    </mxGeometry>
                </mxCell>
                <mxCell id="17" value="" style="shape=flexArrow;endArrow=classic;html=1;fillColor=#f8cecc;strokeColor=#b85450;" parent="1" edge="1">
                    <mxGeometry width="50" height="50" relative="1" as="geometry">
                        <mxPoint x="360" y="260" as="sourcePoint"/>
                        <mxPoint x="460" y="260" as="targetPoint"/>
                    </mxGeometry>
                </mxCell>
                <mxCell id="18" value="&lt;b&gt;map()&lt;/b&gt;" style="rounded=0;whiteSpace=wrap;html=1;shadow=1;fillColor=#f5f5f5;fontColor=#333333;strokeColor=#666666;" parent="1" vertex="1">
                    <mxGeometry x="360" y="210" width="70" height="30" as="geometry"/>
                </mxCell>
                <mxCell id="19" value="" style="endArrow=classic;html=1;startArrow=none;entryX=0.5;entryY=1;entryDx=0;entryDy=0;" parent="1" source="20" edge="1" target="34">
                    <mxGeometry width="50" height="50" relative="1" as="geometry">
                        <mxPoint x="525" y="28" as="sourcePoint"/>
                        <mxPoint x="525" y="268" as="targetPoint"/>
                    </mxGeometry>
                </mxCell>
                <mxCell id="20" value="Book" style="ellipse;whiteSpace=wrap;html=1;fillColor=#d5e8d4;strokeColor=#82b366;shadow=1;" parent="1" vertex="1">
                    <mxGeometry x="490" y="48" width="70" height="50" as="geometry"/>
                </mxCell>
                <mxCell id="22" value="" style="endArrow=none;html=1;" parent="1" target="20" edge="1">
                    <mxGeometry width="50" height="50" relative="1" as="geometry">
                        <mxPoint x="525" y="30" as="sourcePoint"/>
                        <mxPoint x="525" y="238" as="targetPoint"/>
                    </mxGeometry>
                </mxCell>
                <mxCell id="23" value="Book" style="ellipse;whiteSpace=wrap;html=1;fillColor=#d5e8d4;strokeColor=#82b366;shadow=1;" parent="1" vertex="1">
                    <mxGeometry x="490" y="118" width="70" height="50" as="geometry"/>
                </mxCell>
                <mxCell id="24" value="Book" style="ellipse;whiteSpace=wrap;html=1;fillColor=#d5e8d4;strokeColor=#82b366;shadow=1;" parent="1" vertex="1">
                    <mxGeometry x="490" y="188" width="70" height="50" as="geometry"/>
                </mxCell>
                <mxCell id="27" value="" style="endArrow=classic;html=1;" parent="1" edge="1">
                    <mxGeometry width="50" height="50" relative="1" as="geometry">
                        <mxPoint x="524.66" y="280" as="sourcePoint"/>
                        <mxPoint x="524.66" y="370" as="targetPoint"/>
                    </mxGeometry>
                </mxCell>
                <mxCell id="28" value="Book" style="ellipse;whiteSpace=wrap;html=1;fillColor=#d5e8d4;strokeColor=#82b366;shadow=1;" parent="1" vertex="1">
                    <mxGeometry x="490" y="300" width="70" height="50" as="geometry"/>
                </mxCell>
                <mxCell id="29" value="" style="endArrow=classic;html=1;startArrow=none;" parent="1" edge="1">
                    <mxGeometry width="50" height="50" relative="1" as="geometry">
                        <mxPoint x="525" y="380" as="sourcePoint"/>
                        <mxPoint x="525" y="520" as="targetPoint"/>
                    </mxGeometry>
                </mxCell>
                <mxCell id="32" value="Book" style="ellipse;whiteSpace=wrap;html=1;fillColor=#d5e8d4;strokeColor=#82b366;shadow=1;" parent="1" vertex="1">
                    <mxGeometry x="490" y="450" width="70" height="50" as="geometry"/>
                </mxCell>
                <mxCell id="33" value="Book" style="ellipse;whiteSpace=wrap;html=1;fillColor=#d5e8d4;strokeColor=#82b366;shadow=1;" parent="1" vertex="1">
                    <mxGeometry x="490" y="390" width="70" height="50" as="geometry"/>
                </mxCell>
                <mxCell id="38" value="&lt;font size=&quot;1&quot;&gt;&lt;span style=&quot;font-size: 14px&quot;&gt;Stream&lt;/span&gt;&lt;/font&gt;" style="text;html=1;strokeColor=none;fillColor=none;align=center;verticalAlign=middle;whiteSpace=wrap;rounded=0;opacity=30;fontStyle=1" vertex="1" parent="1">
                    <mxGeometry x="250" width="60" height="30" as="geometry"/>
                </mxCell>
                <mxCell id="39" value="&lt;font size=&quot;1&quot;&gt;&lt;b style=&quot;font-size: 14px&quot;&gt;Stream&lt;/b&gt;&lt;/font&gt;" style="text;html=1;strokeColor=none;fillColor=none;align=center;verticalAlign=middle;whiteSpace=wrap;rounded=0;opacity=30;" vertex="1" parent="1">
                    <mxGeometry x="470" width="60" height="30" as="geometry"/>
                </mxCell>
            </root>
        </mxGraphModel>
    </diagram>
    <diagram id="wIpzz4uOao0oQfYRNE4-" name="flatmap">
        <mxGraphModel dx="988" dy="532" grid="0" gridSize="10" guides="1" tooltips="1" connect="1" arrows="1" fold="1" page="1" pageScale="1" pageWidth="850" pageHeight="1100" math="0" shadow="0">
            <root>
                <mxCell id="jXMVuXcmdpLz4qbKkH9A-0"/>
                <mxCell id="jXMVuXcmdpLz4qbKkH9A-1" parent="jXMVuXcmdpLz4qbKkH9A-0"/>
                <mxCell id="bMC3bm_dQhHsErU3l49g-0" value="" style="endArrow=classic;html=1;" parent="jXMVuXcmdpLz4qbKkH9A-1" edge="1">
                    <mxGeometry width="50" height="50" relative="1" as="geometry">
                        <mxPoint x="280" y="40" as="sourcePoint"/>
                        <mxPoint x="280" y="520" as="targetPoint"/>
                    </mxGeometry>
                </mxCell>
                <mxCell id="bMC3bm_dQhHsErU3l49g-1" value="Book" style="ellipse;whiteSpace=wrap;html=1;fillColor=#d5e8d4;strokeColor=#82b366;shadow=1;" parent="jXMVuXcmdpLz4qbKkH9A-1" vertex="1">
                    <mxGeometry x="190" y="100" width="70" height="50" as="geometry"/>
                </mxCell>
                <mxCell id="bMC3bm_dQhHsErU3l49g-2" value="Book" style="ellipse;whiteSpace=wrap;html=1;fillColor=#d5e8d4;strokeColor=#82b366;shadow=1;" parent="jXMVuXcmdpLz4qbKkH9A-1" vertex="1">
                    <mxGeometry x="300" y="100" width="70" height="50" as="geometry"/>
                </mxCell>
                <mxCell id="bMC3bm_dQhHsErU3l49g-3" value="Book" style="ellipse;whiteSpace=wrap;html=1;fillColor=#d5e8d4;strokeColor=#82b366;shadow=1;" parent="jXMVuXcmdpLz4qbKkH9A-1" vertex="1">
                    <mxGeometry x="245" y="100" width="70" height="50" as="geometry"/>
                </mxCell>
                <mxCell id="bMC3bm_dQhHsErU3l49g-4" value="Author" style="rounded=1;whiteSpace=wrap;html=1;fillColor=#ffe6cc;strokeColor=#d79b00;shadow=1;" parent="jXMVuXcmdpLz4qbKkH9A-1" vertex="1">
                    <mxGeometry x="230" y="60" width="100" height="50" as="geometry"/>
                </mxCell>
                <mxCell id="bMC3bm_dQhHsErU3l49g-5" value="Book" style="ellipse;whiteSpace=wrap;html=1;fillColor=#d5e8d4;strokeColor=#82b366;shadow=1;" parent="jXMVuXcmdpLz4qbKkH9A-1" vertex="1">
                    <mxGeometry x="245" y="240" width="70" height="50" as="geometry"/>
                </mxCell>
                <mxCell id="bMC3bm_dQhHsErU3l49g-6" value="Author" style="rounded=1;whiteSpace=wrap;html=1;fillColor=#ffe6cc;strokeColor=#d79b00;shadow=1;" parent="jXMVuXcmdpLz4qbKkH9A-1" vertex="1">
                    <mxGeometry x="230" y="200" width="100" height="50" as="geometry"/>
                </mxCell>
                <mxCell id="bMC3bm_dQhHsErU3l49g-7" value="Book" style="ellipse;whiteSpace=wrap;html=1;fillColor=#d5e8d4;strokeColor=#82b366;shadow=1;" parent="jXMVuXcmdpLz4qbKkH9A-1" vertex="1">
                    <mxGeometry x="220" y="380" width="70" height="50" as="geometry"/>
                </mxCell>
                <mxCell id="bMC3bm_dQhHsErU3l49g-8" value="Book" style="ellipse;whiteSpace=wrap;html=1;fillColor=#d5e8d4;strokeColor=#82b366;shadow=1;" parent="jXMVuXcmdpLz4qbKkH9A-1" vertex="1">
                    <mxGeometry x="270" y="380" width="70" height="50" as="geometry"/>
                </mxCell>
                <mxCell id="bMC3bm_dQhHsErU3l49g-9" value="Author" style="rounded=1;whiteSpace=wrap;html=1;fillColor=#ffe6cc;strokeColor=#d79b00;shadow=1;" parent="jXMVuXcmdpLz4qbKkH9A-1" vertex="1">
                    <mxGeometry x="230" y="340" width="100" height="50" as="geometry"/>
                </mxCell>
                <mxCell id="bMC3bm_dQhHsErU3l49g-10" value="" style="endArrow=classic;html=1;" parent="jXMVuXcmdpLz4qbKkH9A-1" edge="1">
                    <mxGeometry width="50" height="50" relative="1" as="geometry">
                        <mxPoint x="500" y="40" as="sourcePoint"/>
                        <mxPoint x="500" y="520" as="targetPoint"/>
                    </mxGeometry>
                </mxCell>
                <mxCell id="bMC3bm_dQhHsErU3l49g-11" value="" style="shape=flexArrow;endArrow=classic;html=1;fillColor=#f8cecc;strokeColor=#b85450;" parent="jXMVuXcmdpLz4qbKkH9A-1" edge="1">
                    <mxGeometry width="50" height="50" relative="1" as="geometry">
                        <mxPoint x="360" y="260" as="sourcePoint"/>
                        <mxPoint x="460" y="260" as="targetPoint"/>
                    </mxGeometry>
                </mxCell>
                <mxCell id="bMC3bm_dQhHsErU3l49g-12" value="&lt;b&gt;flatMap()&lt;/b&gt;" style="rounded=0;whiteSpace=wrap;html=1;shadow=1;fillColor=#f5f5f5;fontColor=#333333;strokeColor=#666666;" parent="jXMVuXcmdpLz4qbKkH9A-1" vertex="1">
                    <mxGeometry x="360" y="210" width="70" height="30" as="geometry"/>
                </mxCell>
                <mxCell id="bMC3bm_dQhHsErU3l49g-14" value="Book" style="ellipse;whiteSpace=wrap;html=1;fillColor=#d5e8d4;strokeColor=#82b366;shadow=1;" parent="jXMVuXcmdpLz4qbKkH9A-1" vertex="1">
                    <mxGeometry x="465" y="80" width="70" height="50" as="geometry"/>
                </mxCell>
                <mxCell id="bMC3bm_dQhHsErU3l49g-16" value="Book" style="ellipse;whiteSpace=wrap;html=1;fillColor=#d5e8d4;strokeColor=#82b366;shadow=1;" parent="jXMVuXcmdpLz4qbKkH9A-1" vertex="1">
                    <mxGeometry x="465" y="120" width="70" height="50" as="geometry"/>
                </mxCell>
                <mxCell id="bMC3bm_dQhHsErU3l49g-17" value="Book" style="ellipse;whiteSpace=wrap;html=1;fillColor=#d5e8d4;strokeColor=#82b366;shadow=1;" parent="jXMVuXcmdpLz4qbKkH9A-1" vertex="1">
                    <mxGeometry x="465" y="160" width="70" height="50" as="geometry"/>
                </mxCell>
                <mxCell id="1K_lsIfNtwA0SR1HOhub-0" value="&lt;font size=&quot;1&quot;&gt;&lt;b style=&quot;font-size: 14px&quot;&gt;Stream&lt;/b&gt;&lt;/font&gt;" style="text;html=1;strokeColor=none;fillColor=none;align=center;verticalAlign=middle;whiteSpace=wrap;rounded=0;opacity=30;" vertex="1" parent="jXMVuXcmdpLz4qbKkH9A-1">
                    <mxGeometry x="250" width="60" height="30" as="geometry"/>
                </mxCell>
                <mxCell id="1K_lsIfNtwA0SR1HOhub-1" value="&lt;font size=&quot;1&quot;&gt;&lt;b style=&quot;font-size: 14px&quot;&gt;Stream&lt;/b&gt;&lt;/font&gt;" style="text;html=1;strokeColor=none;fillColor=none;align=center;verticalAlign=middle;whiteSpace=wrap;rounded=0;opacity=30;" vertex="1" parent="jXMVuXcmdpLz4qbKkH9A-1">
                    <mxGeometry x="470" width="60" height="30" as="geometry"/>
                </mxCell>
                <mxCell id="1K_lsIfNtwA0SR1HOhub-3" value="Book" style="ellipse;whiteSpace=wrap;html=1;fillColor=#d5e8d4;strokeColor=#82b366;shadow=1;" vertex="1" parent="jXMVuXcmdpLz4qbKkH9A-1">
                    <mxGeometry x="465" y="350" width="70" height="50" as="geometry"/>
                </mxCell>
                <mxCell id="1K_lsIfNtwA0SR1HOhub-4" value="Book" style="ellipse;whiteSpace=wrap;html=1;fillColor=#d5e8d4;strokeColor=#82b366;shadow=1;" vertex="1" parent="jXMVuXcmdpLz4qbKkH9A-1">
                    <mxGeometry x="465" y="240" width="70" height="50" as="geometry"/>
                </mxCell>
                <mxCell id="1K_lsIfNtwA0SR1HOhub-2" value="Book" style="ellipse;whiteSpace=wrap;html=1;fillColor=#d5e8d4;strokeColor=#82b366;shadow=1;" vertex="1" parent="jXMVuXcmdpLz4qbKkH9A-1">
                    <mxGeometry x="465" y="390" width="70" height="50" as="geometry"/>
                </mxCell>
            </root>
        </mxGraphModel>
    </diagram>
</mxfile>